<?xml version="1.0" standalone="no"?>
<!DOCTYPE svg PUBLIC "-//W3C//DTD SVG 20010904//EN"
 "http://www.w3.org/TR/2001/REC-SVG-20010904/DTD/svg10.dtd">
<svg version="1.0" xmlns="http://www.w3.org/2000/svg"
 width="1120.000000pt" height="1840.000000pt" viewBox="0 0 1120.000000 1840.000000"
 preserveAspectRatio="xMidYMid meet">

<g transform="translate(0.000000,1840.000000) scale(0.100000,-0.100000)"
fill="#000000" stroke="none">
<path d="M180 18391 c-86 -26 -153 -95 -170 -175 -8 -36 -10 -1121 -8 -3825
l3 -3773 160 182 160 181 49 -5 c60 -7 159 -52 241 -110 85 -61 204 -190 245
-267 29 -54 35 -74 35 -129 0 -75 -27 -130 -77 -156 -39 -20 -64 -14 -168 47
-102 58 -115 61 -106 18 6 -30 5 -30 -56 25 -34 30 -66 52 -72 49 -5 -3 8 -22
30 -41 137 -123 131 -115 158 -201 23 -74 25 -85 12 -114 -28 -67 -249 -319
-351 -400 l-49 -39 -23 27 c-13 14 -23 37 -23 50 0 14 41 75 108 162 167 214
162 207 155 231 -14 55 -50 22 -252 -235 -50 -64 -100 -115 -131 -135 l-50
-33 0 -986 0 -985 128 63 c150 74 231 98 305 88 117 -16 212 -74 261 -158 39
-66 40 -100 12 -224 -30 -128 -34 -236 -10 -291 28 -67 71 -101 229 -176 l150
-72 3 -154 c2 -84 7 -187 12 -229 5 -42 7 -77 6 -78 -1 -2 -25 4 -52 12 -72
21 -134 66 -183 132 -41 55 -60 91 -179 343 -75 160 -212 333 -400 504 -121
110 -291 236 -281 208 2 -5 51 -44 109 -87 131 -96 363 -330 449 -450 35 -49
81 -128 103 -175 151 -324 190 -386 282 -449 23 -16 68 -37 99 -46 43 -12 58
-22 62 -38 2 -12 11 -56 19 -99 32 -162 93 -296 160 -354 22 -19 44 -34 49
-34 6 0 7 -53 3 -142 -14 -299 -55 -549 -111 -694 -25 -64 -115 -237 -121
-231 -1 1 5 31 14 67 25 102 22 355 -7 489 -61 287 -208 629 -488 1135 -134
242 -196 342 -291 469 -76 103 -268 304 -313 327 -13 7 -1 -7 26 -30 203 -175
347 -370 569 -775 374 -680 506 -1042 506 -1390 0 -127 -24 -273 -55 -338 -19
-40 -87 -107 -133 -131 l-30 -16 23 43 c43 77 59 153 58 267 -3 259 -116 590
-394 1150 -176 354 -356 646 -518 840 -74 89 -71 86 -71 69 0 -8 34 -58 76
-110 174 -217 319 -456 505 -833 269 -544 379 -868 379 -1118 0 -120 -17 -189
-62 -261 -42 -65 -72 -87 -122 -87 -147 0 -391 298 -686 836 -45 82 -83 151
-86 153 -2 3 -3 -1235 -2 -2750 l3 -2754 22 -41 c33 -61 96 -111 157 -124 37
-8 1565 -10 5446 -8 l5395 3 41 22 c56 30 109 94 123 148 8 32 11 1493 11
5278 l0 5233 -45 34 c-25 19 -45 36 -45 39 0 3 21 33 45 65 l45 59 0 128 0
128 -102 -36 c-57 -21 -492 -178 -968 -349 l-865 -312 -43 46 c-65 69 -259
330 -344 462 -111 170 -191 313 -289 515 -110 225 -151 328 -135 336 33 18
229 70 236 63 4 -5 27 -54 50 -109 97 -229 262 -533 397 -729 l55 -80 -24 -17
-23 -18 49 -70 c26 -39 53 -74 58 -77 5 -3 18 2 30 12 19 18 20 18 38 -4 l19
-23 928 334 c659 238 929 339 931 350 2 10 -40 64 -97 127 -114 126 -194 228
-274 350 -66 103 -160 276 -155 289 1 5 44 52 95 105 l92 95 56 -112 c60 -117
168 -290 242 -385 l43 -55 0 2395 0 2395 -246 -88 c-135 -49 -250 -89 -257
-89 -7 0 -28 28 -47 62 -87 152 -263 384 -417 547 l-88 94 -154 -49 c-84 -26
-150 -49 -145 -51 5 -1 70 17 144 42 l135 44 89 -92 c276 -285 506 -651 616
-977 150 -448 149 -888 -6 -1570 -110 -487 -136 -611 -159 -755 -32 -202 -42
-433 -25 -586 12 -110 52 -292 100 -451 l24 -77 -58 -75 c-50 -65 -65 -78
-105 -90 -54 -16 -50 -20 -85 85 -78 232 -124 452 -133 629 l-6 115 52 70
c188 251 224 549 92 757 l-30 47 19 83 c114 502 154 725 170 951 33 454 -81
878 -343 1269 -77 116 -233 315 -269 345 -12 10 -169 -36 -824 -242 -786 -248
-984 -311 -992 -319 -2 -2 21 -66 52 -143 123 -308 207 -667 252 -1070 33
-305 29 -797 -11 -1121 -12 -98 -19 -121 -49 -170 -125 -207 -149 -432 -66
-619 14 -32 21 -85 30 -214 19 -312 81 -622 183 -912 l45 -127 -112 -35 c-62
-19 -120 -35 -129 -35 -12 0 -29 39 -66 153 -115 350 -172 662 -187 1012 -8
202 7 404 51 695 59 385 69 510 69 870 0 349 -11 497 -59 773 -63 364 -177
713 -327 997 -70 133 -64 124 -77 116 -7 -5 -2 -21 13 -45 40 -63 124 -235
165 -338 72 -182 163 -485 149 -499 -4 -3 -36 -17 -73 -30 l-65 -24 -728 201
c-400 111 -730 204 -734 208 -4 4 936 566 2089 1249 l2096 1242 -5279 -1
c-2903 0 -5290 -4 -5304 -8z m870 -836 l0 -45 -45 0 c-25 0 -45 -4 -45 -10 0
-5 20 -10 45 -10 l45 0 0 -50 0 -50 -45 0 -45 0 0 -110 0 -110 -60 0 -60 0 0
110 c0 103 -1 110 -20 110 -17 0 -20 7 -20 50 0 42 3 50 19 50 11 0 28 15 40
35 25 43 88 74 149 75 l42 0 0 -45z m150 5 l0 -40 -60 0 -60 0 0 40 0 40 60 0
60 0 0 -40z m392 -99 c28 -31 28 -33 28 -161 l0 -130 -60 0 -60 0 0 98 c0 63
-4 102 -12 110 -7 7 -30 12 -53 12 -23 0 -46 -5 -53 -12 -8 -8 -12 -47 -12
-110 l0 -98 -60 0 -60 0 0 160 0 160 55 0 55 0 0 -47 1 -48 13 30 c26 58 59
76 135 71 46 -2 59 -8 83 -35z m344 20 c60 -27 74 -64 74 -200 l0 -111 -55 0
-55 0 0 38 -1 37 -14 -26 c-18 -33 -67 -54 -122 -53 -78 2 -126 57 -102 117
16 38 53 53 152 62 65 6 78 10 75 23 -4 24 -96 30 -104 8 -5 -12 -21 -16 -66
-16 l-60 0 7 28 c11 45 34 73 78 93 54 24 139 24 193 0z m435 3 c46 -24 59
-66 59 -199 l0 -115 -59 0 -59 0 -4 100 c-3 114 -7 120 -75 120 -56 0 -63 -15
-63 -129 l0 -91 -60 0 -60 0 0 160 0 160 55 0 55 0 0 -47 1 -48 20 37 c10 21
32 44 47 52 36 20 105 20 143 0z m376 -4 c45 -20 83 -69 83 -107 0 -21 -5 -23
-58 -23 -46 0 -60 4 -70 20 -13 21 -74 28 -99 12 -18 -11 -26 -58 -14 -80 20
-38 121 -36 121 3 0 12 13 15 60 15 54 0 60 -2 60 -21 0 -91 -113 -153 -234
-127 -124 26 -172 156 -100 266 38 58 169 80 251 42z m400 -1 c50 -24 83 -77
83 -134 l0 -35 -125 0 c-96 0 -125 -3 -125 -13 0 -24 24 -37 67 -37 32 0 46 5
55 20 10 16 24 20 66 20 62 0 73 -14 46 -61 -28 -47 -83 -72 -162 -72 -90 -1
-139 23 -169 83 -63 124 20 250 166 250 35 0 70 -8 98 -21z m-1947 -149 l0
-160 -60 0 -60 0 0 160 0 160 60 0 60 0 0 -160z m8945 -620 c251 -306 411
-624 481 -955 21 -98 27 -159 31 -327 8 -292 -15 -474 -108 -870 -22 -95 -44
-195 -50 -222 -5 -27 -14 -67 -20 -88 l-10 -39 -47 42 c-107 94 -273 166 -440
190 -120 17 -382 6 -497 -20 -343 -80 -679 -272 -872 -500 l-56 -66 6 45 c35
242 45 891 19 1135 -43 400 -129 768 -254 1088 -28 71 -46 132 -42 137 11 9
125 43 130 38 2 -2 26 -57 54 -122 81 -188 161 -478 186 -673 4 -34 11 -53 20
-53 9 0 12 9 9 28 -51 305 -120 549 -210 747 -19 43 -32 82 -28 86 9 8 145 51
149 47 1 -2 26 -49 54 -106 91 -182 157 -380 205 -617 12 -60 27 -111 33 -113
6 -2 9 5 7 15 -2 10 -14 68 -25 128 -41 205 -132 467 -219 631 l-38 71 66 21
c37 12 75 22 83 22 34 0 157 -242 228 -445 41 -119 68 -218 90 -329 7 -32 16
-54 20 -50 10 10 -17 145 -56 276 -40 136 -99 281 -175 427 -38 74 -68 135
-67 136 2 1 38 14 81 28 l78 26 50 -76 c108 -166 230 -459 276 -662 10 -44 21
-81 25 -81 14 0 9 32 -22 147 -51 194 -142 408 -252 591 -28 46 -48 85 -47 86
8 7 134 46 146 46 21 0 149 -202 219 -345 57 -116 125 -303 154 -423 6 -23 15
-40 20 -37 11 7 -29 157 -76 282 -46 125 -147 324 -219 433 -31 47 -57 89 -58
94 -2 7 124 56 145 56 14 0 126 -160 193 -275 78 -135 142 -277 185 -413 18
-56 37 -102 42 -102 21 0 -50 206 -126 365 -69 143 -120 231 -202 345 -29 41
-54 79 -54 84 -1 5 34 20 76 34 l77 24 19 -24 c178 -219 321 -468 385 -669 16
-52 33 -89 41 -89 16 0 14 7 -35 140 -76 204 -243 486 -365 616 l-29 31 83 26
83 27 23 -28 c191 -223 344 -470 412 -662 13 -36 27 -69 31 -74 41 -46 -21
128 -98 276 -56 109 -173 286 -251 382 -32 38 -65 79 -75 92 l-18 23 72 21
c39 12 78 24 85 27 8 3 14 -1 14 -9 0 -8 14 -27 31 -44 48 -45 182 -214 248
-313 66 -98 146 -244 182 -333 12 -32 26 -58 31 -58 11 0 11 3 -13 62 -78 199
-242 451 -418 642 l-55 61 69 21 c39 12 75 23 80 23 6 0 50 -49 100 -109z
m-6735 -1549 c19 -5 52 -50 132 -181 60 -96 105 -177 101 -181 -5 -5 -93 -55
-198 -112 -162 -88 -191 -101 -199 -88 -6 9 -70 119 -143 246 -151 262 -149
233 -23 276 127 44 259 60 330 40z m109 -7 c65 -19 119 -67 213 -188 38 -49
67 -90 66 -91 -2 -2 -31 -16 -64 -33 l-62 -31 -106 173 c-97 158 -112 186
-103 186 2 0 27 -7 56 -16z m-547 -121 c9 -16 72 -125 140 -244 l125 -215
-210 -116 -210 -117 -22 47 c-31 66 -78 111 -126 118 -50 8 -56 29 -41 148 14
112 53 196 126 270 51 53 168 136 190 136 7 0 19 -12 28 -27z m5028 -6 c0 -4
-510 -481 -571 -534 l-35 -32 -47 40 c-26 23 -47 44 -47 49 0 17 199 175 335
265 185 123 365 227 365 212z m-3765 -51 c16 -12 17 -17 6 -44 -25 -60 -173
-177 -365 -287 l-48 -28 17 33 c53 103 52 167 -5 190 l-29 12 82 40 c181 89
297 117 342 84z m-387 -158 c7 -7 12 -25 12 -41 0 -38 -67 -164 -97 -184 -25
-17 -159 -30 -187 -20 -14 5 -14 10 -1 41 17 39 20 76 7 76 -5 0 -14 -18 -21
-40 -23 -79 -88 -154 -153 -179 -45 -17 -211 -42 -313 -48 -122 -6 -129 -12
125 125 30 16 123 67 205 112 140 77 226 120 250 125 6 2 26 12 45 24 39 23
109 28 128 9z m2906 -236 c4 -10 -1 -40 -9 -68 -19 -64 -19 -64 9 -64 15 0 27
7 31 19 22 71 114 96 155 44 15 -19 20 -35 16 -53 -18 -76 -19 -100 -2 -100 9
0 24 16 33 35 13 28 23 35 44 35 82 0 111 -56 79 -149 -19 -52 -25 -91 -16
-91 20 0 40 19 52 50 13 31 19 37 37 33 35 -9 47 -33 47 -92 -1 -115 -32 -218
-99 -336 -35 -61 -67 -114 -71 -119 -9 -9 -357 184 -510 284 -52 34 -112 78
-132 98 -62 59 -53 95 65 275 78 117 143 192 180 207 39 16 85 12 91 -8z
m-2915 -177 l50 -150 35 -6 c73 -12 86 -57 28 -95 -18 -13 -37 -24 -42 -26 -6
-2 -6 -43 2 -109 14 -123 2 -218 -35 -284 -34 -59 -55 -67 -182 -62 -125 5
-210 28 -286 79 -95 64 -111 127 -69 268 27 91 24 162 -15 294 -29 99 -29 100
37 110 57 9 111 40 149 84 l34 39 75 -4 c50 -3 88 0 115 9 22 8 43 12 47 9 3
-3 29 -73 57 -156z m-1128 64 c26 -18 89 -111 89 -131 0 -4 -9 -12 -20 -18
-18 -10 -22 -5 -44 43 -23 52 -65 97 -92 97 -8 0 -14 7 -14 15 0 22 47 19 81
-6z m7292 -54 c481 -84 701 -459 507 -864 -185 -384 -652 -689 -1154 -752
-141 -17 -335 -7 -458 25 -321 82 -515 315 -494 593 28 375 391 752 893 926
91 32 247 70 328 80 81 10 300 6 378 -8z m-7099 -131 c9 -33 16 -76 16 -95 0
-38 -39 -108 -84 -149 l-28 -25 -24 30 c-35 42 -72 116 -83 165 -9 40 -8 41
27 61 21 11 62 35 92 54 30 18 58 30 61 27 3 -4 13 -34 23 -68z m3732 -455
l392 -171 -51 -112 c-80 -174 -305 -615 -404 -791 -253 -450 -486 -782 -673
-959 -257 -242 -580 -327 -915 -242 -204 52 -459 206 -651 392 -135 132 -224
286 -250 435 -16 93 -24 111 -24 53 0 -99 69 -267 157 -381 27 -34 161 -179
299 -322 l250 -260 82 -488 c46 -268 82 -494 82 -500 0 -10 -317 -13 -1549
-13 -853 0 -1552 3 -1554 8 -7 12 98 825 143 1102 44 274 111 664 160 929 27
148 30 184 15 170 -6 -7 -35 -160 -89 -471 -43 -246 -51 -276 -191 -729 l-146
-472 -237 -290 c-131 -160 -242 -292 -247 -294 -11 -3 -755 712 -755 725 0 8
478 583 709 852 585 681 926 992 1291 1175 183 92 355 148 590 192 134 25 498
25 660 -1 485 -75 1024 -263 1520 -530 101 -55 106 -56 120 -38 8 11 202 285
430 610 228 325 421 591 429 591 8 1 191 -76 407 -170z m-3428 -263 c97 -33
188 -83 219 -120 l26 -31 -146 -6 c-80 -4 -157 -9 -171 -13 -23 -6 -26 -3 -26
17 0 56 13 177 20 177 3 0 39 -11 78 -24z m7541 -281 c137 -33 257 -121 303
-223 95 -211 -13 -453 -357 -798 -115 -116 -332 -304 -351 -304 -8 0 -159 63
-167 70 -4 4 45 49 110 100 177 140 415 383 496 505 102 156 137 267 115 368
-15 72 -84 140 -166 164 -64 19 -72 30 -72 104 0 33 3 34 89 14z m-380 -191
c16 -140 72 -371 132 -549 l52 -150 -92 -87 c-50 -47 -145 -128 -211 -179 -66
-51 -120 -96 -120 -99 0 -4 50 -28 110 -53 l111 -45 72 55 c40 31 107 87 150
126 43 38 79 68 81 66 1 -2 24 -44 50 -94 97 -182 239 -379 410 -569 38 -42
67 -78 65 -80 -8 -6 -1817 -656 -1827 -656 -5 0 -13 8 -16 17 -8 20 -12 15
170 171 183 156 402 360 498 464 l76 83 0 87 c0 49 -3 88 -7 88 -3 0 -58 -51
-122 -113 -147 -143 -308 -287 -430 -386 -159 -129 -303 -233 -311 -224 -4 4
-34 49 -67 98 -216 326 -408 725 -512 1062 -92 301 -151 635 -151 855 l0 69
48 -48 c91 -94 224 -166 374 -204 131 -33 367 -37 527 -10 308 52 620 205 842
410 l74 69 6 -37 c4 -20 12 -81 18 -137z m-3109 -346 l0 -61 -122 -125 c-182
-185 -662 -612 -687 -612 -6 0 -72 99 -75 112 0 3 41 36 92 72 186 132 401
311 632 530 85 80 156 146 158 146 1 0 2 -28 2 -62z m957 -208 l10 -61 -116
-102 c-159 -141 -322 -277 -332 -277 -10 0 -84 108 -78 114 2 3 47 35 99 72
87 61 276 210 360 283 19 16 38 30 41 31 3 0 11 -27 16 -60z m2378 -100 c-21
-23 -35 -26 -35 -6 0 13 15 21 44 25 5 0 1 -8 -9 -19z m-732 -1110 c-172 -170
-547 -505 -594 -530 -13 -8 -25 3 -58 49 l-41 59 51 32 c152 98 480 370 709
588 l125 119 3 -61 3 -61 -198 -195z m-1573 250 l0 -60 -112 -116 c-170 -175
-672 -624 -698 -624 -4 0 -24 26 -45 57 l-38 57 24 15 c52 35 299 223 374 286
131 109 294 258 390 354 49 50 93 91 97 91 5 0 8 -27 8 -60z m-1895 -240 c147
-55 351 -338 670 -930 169 -313 596 -1182 595 -1208 -1 -10 -465 -325 -500
-339 -55 -23 -160 -27 -251 -9 -416 84 -798 528 -885 1030 -12 66 -15 124 -11
214 l6 123 -27 10 c-35 13 -77 6 -271 -47 -200 -56 -283 -74 -339 -74 -113 0
-169 75 -347 460 -32 69 -79 163 -105 210 -42 74 -50 99 -65 198 -11 66 -14
117 -9 122 5 4 88 31 186 59 330 94 652 166 853 190 50 6 101 13 115 15 14 3
93 3 175 2 127 -3 159 -6 210 -26z m-1469 -1065 c-29 -748 -220 -1223 -731
-1821 -373 -436 -826 -830 -1430 -1246 -121 -83 -406 -265 -428 -274 -11 -4
-16 9 -21 53 -20 178 -114 381 -288 623 -37 52 -141 188 -231 301 -185 234
-250 327 -283 408 -76 183 2 282 621 799 305 255 554 497 600 582 28 52 30 61
30 170 0 100 -5 134 -38 259 -36 139 -48 261 -31 305 6 14 114 16 1122 16
l1115 0 -7 -175z m3822 -1136 c36 -19 74 -46 85 -61 l20 -26 -33 -59 c-120
-213 -486 -573 -884 -871 -322 -240 -514 -347 -721 -402 l-80 -21 -32 37 c-18
20 -47 73 -64 118 -17 45 -33 86 -36 92 -2 7 24 13 77 17 146 11 404 115 579
231 183 123 343 273 388 364 38 77 43 173 15 257 -11 33 -20 60 -19 61 1 1 34
20 73 43 93 54 158 119 180 179 10 26 19 48 20 50 9 13 176 31 263 28 95 -4
110 -7 169 -37z m-468 -20 c0 -33 -38 -87 -91 -129 -65 -51 -238 -138 -405
-204 -197 -77 -190 -76 -198 -26 -9 54 1 104 25 126 38 34 366 168 539 219 63
19 118 34 123 35 4 0 7 -10 7 -21z m-739 -142 c45 -71 46 -75 31 -102 -12 -23
-14 -51 -9 -135 4 -62 2 -122 -4 -143 -15 -54 -108 -150 -180 -186 -80 -40
-132 -47 -208 -27 -76 20 -133 20 -186 1 -22 -8 -41 -15 -42 -15 -5 0 -113
215 -111 222 3 8 648 456 658 457 3 1 26 -32 51 -72z m1339 2 c32 -117 -44
-237 -386 -608 -464 -505 -883 -805 -1139 -818 -70 -3 -85 -1 -120 19 -59 35
-109 118 -71 118 35 0 189 56 291 105 432 208 1196 868 1374 1186 14 26 29 45
33 43 4 -3 12 -23 18 -45z m-835 -170 c24 -71 17 -188 -14 -248 -61 -119 -325
-335 -552 -451 -142 -73 -294 -122 -400 -128 l-86 -5 -40 114 c-71 201 -68
187 -42 215 55 59 168 82 256 53 55 -18 158 -7 225 25 111 53 196 162 201 257
l2 54 135 51 c74 28 167 65 205 82 39 17 75 32 82 32 6 0 19 -23 28 -51z
m-6989 -871 c152 -158 278 -340 392 -568 58 -115 70 -147 60 -156 -18 -18
-348 -244 -355 -244 -4 0 -40 16 -82 36 -42 20 -97 45 -123 55 -76 30 -161 75
-187 100 -65 62 -77 169 -36 337 14 57 25 120 25 140 0 45 -32 117 -67 154
l-26 27 39 23 c21 13 92 55 159 95 66 40 123 72 126 72 3 1 37 -32 75 -71z
m103 -1008 c92 -73 119 -133 145 -319 17 -117 40 -502 34 -566 l-3 -40 -43 39
c-85 77 -149 264 -176 513 -20 187 -30 413 -17 413 5 0 32 -18 60 -40z m2699
-3553 l3 -138 56 66 c55 63 58 65 105 65 26 0 48 -3 48 -7 0 -3 -25 -32 -56
-65 -35 -37 -53 -62 -48 -70 4 -7 26 -42 49 -78 74 -115 73 -110 20 -110 -45
0 -45 0 -91 71 l-45 71 -19 -25 c-13 -17 -20 -41 -20 -71 l0 -46 -50 0 -50 0
0 233 c0 129 3 237 7 241 4 4 25 6 48 4 l40 -3 3 -138z m-2906 23 l3 -100 79
100 79 100 55 0 54 0 -28 -37 c-15 -21 -46 -60 -67 -86 l-40 -49 26 -51 c14
-29 49 -94 78 -145 l51 -93 -53 3 -53 3 -60 104 -59 103 -33 -38 c-30 -36 -33
-45 -34 -106 l0 -68 -50 0 -50 0 0 230 0 230 50 0 49 0 3 -100z m3878 70 c0
-27 -3 -30 -34 -30 -35 0 -46 -13 -46 -51 0 -15 7 -19 35 -19 32 0 35 -2 35
-29 0 -26 -4 -30 -32 -33 l-33 -3 -3 -132 -3 -133 -44 0 -45 0 0 135 0 135
-30 0 c-27 0 -30 3 -30 30 0 27 3 30 30 30 28 0 30 2 30 39 0 24 8 48 21 65
18 23 27 26 85 26 l64 0 0 -30z m-2180 -50 l0 -50 40 0 c38 0 40 -2 40 -29 0
-27 -3 -30 -37 -33 l-38 -3 -3 -80 c-4 -112 0 -125 44 -125 33 0 35 -2 32 -27
-3 -26 -6 -28 -59 -31 -44 -2 -61 1 -82 18 -25 20 -26 25 -29 133 l-3 112 -27
3 c-24 3 -28 8 -28 33 0 25 4 29 30 29 25 0 30 5 39 38 6 20 11 43 11 50 0 7
14 12 35 12 l35 0 0 -50z m-1142 -67 c43 -32 62 -66 69 -121 l6 -52 -112 0
c-104 0 -111 -1 -111 -20 0 -27 35 -60 64 -60 14 0 38 11 54 25 29 24 85 34
96 17 11 -18 -36 -74 -77 -92 -55 -26 -93 -25 -147 3 -102 51 -120 203 -34
284 19 17 44 34 56 36 43 9 110 -1 136 -20z m352 5 c52 -27 80 -74 80 -135 l0
-43 -110 0 c-122 0 -133 -8 -85 -55 31 -32 56 -31 93 0 20 17 42 25 66 25 48
0 47 -21 -2 -70 -62 -62 -166 -63 -227 -2 -36 36 -45 62 -45 129 0 73 29 126
84 153 53 26 91 25 146 -2z m396 7 c50 -21 78 -86 72 -169 -5 -71 -22 -111
-61 -140 -41 -30 -107 -29 -141 3 l-26 24 0 -71 0 -72 -50 0 -50 0 0 215 0
215 50 0 c43 0 50 -3 50 -20 0 -18 2 -18 36 5 42 29 70 31 120 10z m744 -29
l0 -43 -42 -6 c-61 -8 -68 -24 -68 -144 l0 -103 -50 0 -50 0 0 165 0 165 45 0
c44 0 45 -1 45 -32 l0 -33 23 26 c25 31 54 48 80 49 14 0 17 -9 17 -44z m270
31 c56 -19 70 -59 70 -205 l0 -123 -42 3 c-35 2 -44 7 -46 24 l-3 22 -23 -23
c-81 -81 -223 0 -184 104 17 46 59 69 137 77 60 7 62 8 59 33 -3 22 -9 26 -40
29 -27 2 -43 -3 -57 -17 -21 -21 -91 -30 -91 -12 0 75 118 123 220 88z m350
-5 c35 -17 80 -73 80 -98 0 -9 -12 -14 -34 -14 -25 0 -43 8 -65 31 -55 54
-111 15 -111 -78 0 -44 5 -58 25 -78 13 -14 33 -25 45 -25 21 0 60 32 60 50 0
13 67 13 75 0 9 -14 -20 -65 -51 -89 -73 -57 -192 -23 -230 66 -17 39 -18 111
-3 150 32 86 129 125 209 85z m878 -9 c46 -34 63 -67 69 -129 4 -49 0 -67 -19
-103 -34 -65 -67 -86 -138 -86 -63 0 -95 16 -133 67 -22 29 -33 100 -23 152 8
43 49 94 91 112 40 19 120 12 153 -13z m1090 0 c45 -34 65 -70 70 -126 6 -70
-11 -119 -53 -155 -58 -52 -155 -51 -214 2 -89 79 -55 261 55 296 42 14 113 5
142 -17z m722 -18 c0 -45 0 -45 -35 -45 -25 0 -44 -8 -60 -25 -23 -22 -25 -31
-25 -125 l0 -100 -45 0 -45 0 0 165 0 165 45 0 c44 0 45 -1 45 -31 l0 -32 21
27 c22 28 51 44 82 45 14 1 17 -8 17 -44z m450 17 c25 -18 26 -18 60 6 48 32
104 26 143 -18 27 -30 27 -32 27 -165 l0 -135 -45 0 -45 0 0 108 c0 81 -4 113
-16 130 -16 24 -44 28 -75 12 -17 -10 -19 -22 -19 -130 l0 -120 -50 0 -49 0
-3 121 c-3 136 -11 152 -65 133 l-28 -9 -3 -123 -3 -122 -49 0 -50 0 0 165 0
165 50 0 c36 0 50 -4 50 -14 0 -11 8 -10 38 6 43 22 92 19 132 -10z m538 1
c46 -34 63 -67 69 -129 4 -49 0 -67 -19 -103 -34 -65 -67 -86 -138 -86 -63 0
-95 16 -133 67 -22 29 -33 100 -23 152 8 43 49 94 91 112 40 19 120 12 153
-13z m730 7 c49 -22 81 -79 82 -142 l0 -38 -110 0 c-96 0 -110 -2 -110 -17 0
-25 40 -63 66 -63 12 0 36 11 52 25 20 17 42 25 67 25 33 0 36 -2 30 -22 -19
-62 -102 -106 -174 -93 -87 16 -134 75 -134 164 0 140 110 216 231 161z
m-2914 -96 l39 -107 40 107 39 106 44 0 c24 0 44 -2 44 -5 0 -16 -145 -364
-161 -387 -24 -33 -79 -52 -125 -43 -32 6 -35 9 -32 38 2 21 8 31 17 29 27 -6
71 10 81 29 8 14 1 43 -34 128 -25 60 -54 132 -66 160 l-20 51 48 0 48 0 38
-106z m696 -13 c0 -113 1 -121 22 -135 30 -21 54 -20 78 4 18 18 20 33 20 135
l0 115 45 0 45 0 0 -165 0 -165 -35 0 c-28 0 -36 4 -41 24 l-6 25 -21 -25
c-29 -34 -90 -41 -137 -17 -56 29 -70 69 -70 206 l0 117 50 0 50 0 0 -119z
m1710 98 l0 -20 26 20 c36 28 112 29 147 1 36 -28 47 -76 47 -202 l0 -108 -50
0 -50 0 0 114 c0 91 -3 118 -16 130 -18 18 -47 20 -75 6 -17 -10 -19 -22 -19
-130 l0 -120 -50 0 -50 0 0 165 0 165 45 0 c39 0 45 -3 45 -21z m740 -81 c19
-54 38 -98 41 -98 4 0 22 44 42 98 l34 97 48 3 c36 2 46 0 42 -10 -133 -336
-147 -368 -178 -397 -24 -22 -77 -34 -113 -25 -22 5 -26 12 -26 41 0 29 3 33
19 28 30 -9 72 5 80 28 6 15 -10 64 -56 175 -34 85 -63 156 -63 159 0 2 21 3
48 1 l47 -3 35 -97z m-6370 -768 l0 -240 -35 0 c-31 0 -35 3 -35 27 l0 27 -31
-30 c-25 -24 -39 -29 -79 -29 -89 0 -140 63 -140 170 1 82 28 141 74 160 47
20 74 19 119 -5 l37 -20 0 90 0 90 45 0 45 0 0 -240z m1930 191 c0 -26 -4 -30
-32 -33 -29 -3 -33 -7 -36 -35 -3 -32 -2 -33 32 -33 33 0 36 -2 36 -29 0 -26
-4 -30 -32 -33 l-33 -3 -3 -132 -3 -133 -44 0 -44 0 -3 133 -3 132 -27 3 c-24
3 -28 8 -28 33 0 26 3 29 30 29 29 0 30 2 30 45 0 65 23 85 100 85 60 0 60 0
60 -29z m2500 -1 c0 -27 -3 -30 -30 -30 -19 0 -33 -7 -40 -21 -17 -32 -5 -49
35 -49 32 0 35 -2 35 -30 0 -28 -3 -30 -35 -30 l-35 0 0 -135 0 -135 -50 0
-50 0 0 135 0 135 -30 0 c-27 0 -30 3 -30 30 0 27 3 30 30 30 28 0 30 2 30 40
0 63 33 90 110 90 l60 0 0 -30z m560 -50 l0 -50 35 0 c32 0 35 -2 35 -30 0
-28 -3 -30 -35 -30 l-36 0 3 -102 3 -103 33 -3 c28 -3 32 -7 32 -33 0 -29 0
-29 -60 -29 -51 0 -65 4 -85 25 -24 23 -25 31 -25 135 l0 110 -25 0 c-21 0
-25 5 -25 29 0 25 5 30 27 33 21 2 29 10 35 38 14 58 16 60 53 60 l35 0 0 -50z
m-5829 -51 c64 -21 69 -35 69 -190 l0 -139 -40 0 c-37 0 -40 2 -40 27 0 27 0
27 -15 6 -8 -12 -31 -27 -50 -33 -97 -32 -184 54 -141 139 21 40 61 60 136 68
58 6 61 7 58 32 -3 23 -8 26 -45 29 -34 2 -45 -1 -55 -17 -18 -29 -88 -30 -88
-2 0 67 116 111 211 80z m1265 -8 c29 -13 45 -28 52 -49 13 -37 8 -42 -34 -42
-23 0 -37 6 -44 21 -9 16 -19 20 -53 17 -34 -2 -43 -7 -45 -25 -3 -18 4 -24
40 -33 87 -22 108 -32 129 -58 27 -34 21 -98 -11 -124 -71 -57 -208 -40 -245
32 -21 40 -20 40 25 40 27 0 47 -7 60 -20 37 -37 123 -18 107 24 -3 8 -32 20
-64 26 -70 15 -109 34 -123 59 -25 48 -1 107 55 132 51 24 99 23 151 0z m351
4 c59 -25 62 -35 63 -187 l0 -138 -40 0 c-37 0 -40 2 -40 26 l0 27 -23 -25
c-65 -70 -197 -25 -197 68 0 67 74 114 180 114 22 0 30 5 30 18 0 44 -72 59
-105 22 -24 -27 -85 -28 -85 -1 0 70 126 114 217 76z m671 -5 c49 -22 81 -79
82 -142 l0 -38 -110 0 c-122 0 -133 -8 -85 -55 31 -32 56 -31 93 0 20 17 42
25 66 25 45 0 47 -17 5 -65 -52 -59 -142 -69 -215 -24 -98 60 -86 246 18 298
53 26 90 26 146 1z m752 -2 c59 -31 83 -74 84 -152 1 -78 -23 -123 -84 -153
-54 -28 -92 -29 -146 -4 -58 26 -84 73 -84 150 0 84 27 136 83 162 55 25 93
24 147 -3z m360 -23 c0 -45 0 -45 -35 -45 -25 0 -44 -8 -60 -25 -23 -22 -25
-31 -25 -125 l0 -100 -45 0 -45 0 0 165 0 165 45 0 c44 0 45 -1 45 -31 l0 -32
21 27 c22 28 51 44 82 45 14 1 17 -8 17 -44z m758 18 c54 -40 67 -69 67 -148
0 -59 -4 -79 -21 -101 -39 -53 -70 -69 -134 -69 -93 0 -150 54 -158 150 -7 84
27 151 93 181 40 19 119 12 153 -13z m720 -20 c3 -43 3 -43 -31 -43 -20 0 -46
-9 -61 -21 -25 -20 -26 -24 -26 -125 l0 -104 -45 0 -45 0 0 165 0 165 45 0
c43 0 45 -1 45 -29 l0 -29 35 35 c49 49 79 43 83 -14z m1672 3 c0 -43 0 -43
-40 -49 -66 -9 -70 -16 -70 -138 l0 -109 -50 0 -50 0 0 165 0 165 45 0 c44 0
45 -1 45 -32 l0 -33 23 26 c25 31 54 48 80 49 14 0 17 -9 17 -44z m270 22 c52
-27 80 -74 80 -135 l0 -43 -110 0 c-122 0 -133 -8 -85 -55 31 -32 56 -31 93 0
20 17 42 25 66 25 48 0 47 -21 -2 -70 -62 -62 -166 -63 -227 -2 -36 36 -45 62
-45 129 0 73 29 126 84 153 53 26 91 25 146 -2z m-6570 -8 c0 -21 0 -21 23 0
18 18 31 21 80 18 94 -7 101 -19 105 -188 l4 -140 -46 0 -46 0 0 108 c0 81 -4
113 -16 130 -18 26 -50 28 -82 6 -21 -14 -22 -23 -22 -130 l0 -114 -45 0 -45
0 0 165 0 165 45 0 c39 0 45 -3 45 -20z m1591 -79 c18 -55 36 -98 40 -95 4 2
22 47 39 99 l32 95 39 0 c25 0 39 -5 38 -12 0 -7 -26 -80 -58 -163 l-57 -150
-35 -3 -36 -3 -31 83 c-16 46 -44 120 -61 166 l-30 82 44 0 44 0 32 -99z
m1843 -7 l39 -107 40 107 39 106 45 0 c38 0 44 -2 39 -18 -15 -48 -146 -355
-160 -377 -19 -28 -84 -49 -127 -40 -25 6 -29 11 -29 41 0 30 3 34 19 29 11
-3 31 -3 45 1 49 12 49 32 0 155 -26 63 -55 135 -65 162 l-19 47 48 0 47 0 39
-106z m696 -11 c0 -94 3 -120 17 -135 21 -24 58 -23 83 2 18 18 20 33 20 135
l0 115 45 0 45 0 0 -165 0 -165 -35 0 c-28 0 -36 4 -41 24 l-6 25 -23 -27
c-20 -23 -31 -27 -73 -27 -55 0 -97 23 -119 66 -8 15 -13 69 -13 147 l0 122
50 0 50 0 0 -117z m1030 -2 c0 -113 1 -121 22 -135 30 -21 54 -20 78 4 18 18
20 33 20 135 l0 115 45 0 45 0 0 -165 0 -165 -34 0 c-28 0 -35 4 -40 26 l-7
26 -20 -25 c-24 -32 -66 -41 -118 -27 -71 19 -81 42 -81 196 l0 134 45 0 45 0
0 -119z m640 15 c0 -58 4 -116 10 -130 12 -33 52 -43 85 -22 24 16 25 20 25
136 l0 120 50 0 50 0 0 -165 0 -165 -40 0 c-37 0 -40 2 -40 26 l0 27 -24 -26
c-32 -35 -81 -43 -134 -21 -63 25 -72 50 -72 199 l0 125 45 0 45 0 0 -104z
m-5190 -1051 c0 -57 4 -95 10 -95 6 0 10 -5 10 -11 0 -6 -10 -9 -22 -7 -22 3
-23 8 -26 106 -2 86 0 102 13 102 12 0 15 -16 15 -95z m4040 0 c0 -57 4 -95
10 -95 6 0 10 -4 10 -10 0 -16 -37 -11 -44 6 -3 9 -6 56 -6 105 0 72 3 89 15
89 12 0 15 -17 15 -95z m1830 -10 c0 -63 -4 -105 -10 -105 -5 0 -10 5 -10 12
0 9 -3 9 -12 0 -17 -17 -58 -15 -80 5 -25 23 -24 87 2 113 22 22 42 25 71 10
17 -10 19 -7 19 30 0 22 5 40 10 40 6 0 10 -42 10 -105z m1180 38 l0 -67 40
39 c42 41 69 42 30 0 l-23 -24 27 -45 c20 -35 23 -46 12 -46 -8 0 -24 16 -36
35 -18 29 -25 33 -36 24 -8 -6 -14 -22 -14 -35 0 -15 -6 -24 -15 -24 -12 0
-15 18 -15 105 0 87 3 105 15 105 12 0 15 -14 15 -67z m-8012 41 c22 -15 29
-57 14 -81 -10 -15 -57 -33 -88 -33 -21 0 -24 -5 -24 -35 0 -19 -4 -35 -10
-35 -6 0 -10 40 -10 100 l0 100 48 0 c27 0 57 -7 70 -16z m1162 6 c0 -5 -7
-10 -15 -10 -8 0 -15 -7 -15 -15 0 -8 7 -15 15 -15 8 0 15 -4 15 -10 0 -5 -7
-10 -15 -10 -12 0 -15 -14 -15 -65 0 -51 -3 -65 -15 -65 -12 0 -15 13 -15 60
0 45 -4 62 -15 66 -8 4 -15 10 -15 15 0 5 7 9 15 9 8 0 15 8 15 18 0 10 3 22
7 25 10 11 53 8 53 -3z m60 -6 c0 -9 -5 -14 -12 -12 -18 6 -21 28 -4 28 9 0
16 -7 16 -16z m2648 4 c-6 -18 -28 -21 -28 -4 0 9 7 16 16 16 9 0 14 -5 12
-12z m1482 2 c0 -5 -7 -10 -15 -10 -8 0 -15 -7 -15 -15 0 -8 7 -15 15 -15 8 0
15 -4 15 -10 0 -5 -7 -10 -15 -10 -12 0 -15 -14 -15 -65 0 -51 -3 -65 -15 -65
-12 0 -15 13 -15 60 0 45 -4 62 -15 66 -8 4 -15 10 -15 15 0 5 7 9 15 9 8 0
15 8 15 18 0 10 3 22 7 25 10 11 53 8 53 -3z m1558 -2 c-6 -18 -28 -21 -28 -4
0 9 7 16 16 16 9 0 14 -5 12 -12z m642 2 c0 -5 -13 -10 -30 -10 l-30 0 0 -90
c0 -73 -3 -90 -15 -90 -12 0 -15 17 -15 90 l0 90 -30 0 c-16 0 -30 5 -30 10 0
6 32 10 75 10 43 0 75 -4 75 -10z m-4510 -20 c0 -11 7 -20 15 -20 8 0 15 -4
15 -10 0 -5 -7 -10 -15 -10 -12 0 -15 -13 -15 -55 0 -42 3 -55 15 -55 8 0 15
-4 15 -10 0 -14 -33 -13 -48 2 -7 7 -12 36 -12 65 0 29 -4 53 -10 53 -5 0 -10
5 -10 10 0 6 7 10 15 10 8 0 15 9 15 20 0 11 5 20 10 20 6 0 10 -9 10 -20z
m1600 0 c0 -11 7 -20 15 -20 8 0 15 -4 15 -10 0 -5 -7 -10 -15 -10 -12 0 -15
-13 -15 -55 0 -42 3 -55 15 -55 8 0 15 -4 15 -10 0 -14 -33 -13 -48 2 -7 7
-12 36 -12 65 0 29 -4 53 -10 53 -5 0 -10 5 -10 10 0 6 7 10 15 10 8 0 15 9
15 20 0 11 5 20 10 20 6 0 10 -9 10 -20z m-4497 -32 c9 -7 19 -25 23 -40 6
-28 6 -28 -46 -28 -48 0 -51 -2 -48 -22 3 -26 43 -37 61 -19 6 6 18 11 26 11
11 0 10 -4 -4 -20 -22 -24 -72 -26 -97 -3 -25 23 -24 87 2 113 23 23 58 26 83
8z m102 2 c9 15 35 12 35 -4 0 -8 -10 -16 -22 -18 -20 -3 -23 -10 -26 -60 -2
-43 -7 -58 -17 -58 -12 0 -15 15 -15 68 0 73 6 88 26 71 8 -7 14 -7 19 1z
m156 -10 c18 -14 20 -19 9 -20 -9 0 -21 5 -27 11 -14 14 -56 2 -50 -14 2 -7
19 -17 37 -23 67 -22 66 -76 -2 -82 -36 -3 -85 27 -58 36 6 2 17 -1 23 -7 6
-6 22 -11 35 -11 36 0 24 31 -18 45 -41 14 -53 51 -24 72 25 18 48 16 75 -7z
m156 -6 c21 -21 24 -32 20 -61 -8 -47 -23 -63 -61 -63 -40 0 -52 9 -65 43 -14
36 -5 73 22 92 31 22 54 18 84 -11z m161 13 c15 -10 17 -137 2 -137 -5 0 -10
21 -10 48 0 58 -10 75 -41 70 -22 -3 -24 -9 -27 -60 -2 -43 -7 -58 -17 -58
-12 0 -15 16 -15 73 l0 74 48 -1 c26 -1 53 -5 60 -9z m150 -3 c18 -13 22 -25
22 -73 l0 -58 -55 -2 c-44 -1 -56 3 -65 18 -19 37 12 71 65 71 20 0 26 4 23
18 -4 22 -41 27 -58 7 -14 -17 -30 -20 -30 -6 0 17 31 41 53 41 13 0 33 -7 45
-16z m352 -59 c0 -60 -3 -75 -15 -75 -12 0 -15 14 -15 68 0 38 3 72 7 75 17
18 23 1 23 -68z m70 65 c0 -6 10 -5 25 2 19 9 29 8 50 -6 22 -15 25 -23 25
-76 0 -46 -3 -60 -15 -60 -10 0 -15 15 -17 58 -3 51 -5 57 -27 60 -31 5 -41
-12 -41 -70 0 -27 -4 -48 -10 -48 -6 0 -10 32 -10 75 0 43 4 75 10 75 6 0 10
-4 10 -10z m231 0 c16 -9 19 -22 19 -75 0 -37 -4 -65 -10 -65 -5 0 -10 5 -10
12 0 9 -3 9 -12 0 -7 -7 -24 -12 -38 -12 -50 0 -68 47 -28 74 12 9 35 16 51
16 31 0 33 16 4 34 -12 8 -21 6 -35 -7 -23 -21 -32 -22 -32 -2 0 29 54 44 91
25z m89 0 c0 -6 10 -5 25 2 19 9 29 8 50 -6 22 -15 25 -23 25 -76 0 -46 -3
-60 -15 -60 -10 0 -15 15 -17 58 -3 56 -3 57 -33 57 -30 0 -30 -1 -33 -57 -4
-85 -22 -71 -22 17 0 43 4 75 10 75 6 0 10 -4 10 -10z m231 0 c10 -6 19 -17
19 -25 0 -18 -10 -18 -33 0 -37 28 -76 -20 -57 -70 11 -30 54 -34 69 -8 5 10
13 14 17 10 15 -15 -13 -42 -45 -45 -45 -5 -71 21 -71 70 0 62 49 95 101 68z
m159 -10 c11 -11 20 -29 20 -40 0 -17 -7 -20 -51 -20 -41 0 -50 -3 -47 -16 5
-29 34 -40 62 -24 31 16 43 9 21 -14 -22 -22 -71 -20 -95 4 -26 26 -26 70 1
104 25 31 61 34 89 6z m211 10 c16 -9 19 -22 19 -75 0 -37 -4 -65 -10 -65 -5
0 -10 5 -10 12 0 9 -3 9 -12 0 -7 -7 -24 -12 -38 -12 -50 0 -68 47 -28 74 12
9 35 16 51 16 31 0 33 16 4 34 -12 8 -21 6 -35 -7 -23 -21 -32 -22 -32 -2 0
29 54 44 91 25z m89 0 c0 -7 6 -7 19 0 29 15 49 12 71 -10 24 -24 26 -77 4
-109 -14 -20 -23 -22 -55 -18 -38 5 -39 4 -39 -24 0 -16 -4 -29 -10 -29 -6 0
-10 40 -10 100 0 60 4 100 10 100 6 0 10 -5 10 -10z m170 0 c0 -7 7 -7 21 0
65 35 118 -66 67 -127 -13 -16 -60 -17 -76 -1 -9 9 -12 4 -12 -26 0 -26 -4
-36 -12 -34 -13 5 -24 157 -14 185 6 15 26 18 26 3z m230 0 c0 -7 7 -7 21 0
58 32 109 -43 74 -110 -16 -30 -20 -32 -56 -27 -38 5 -39 4 -39 -25 0 -19 -4
-28 -12 -26 -13 5 -24 157 -14 185 6 15 26 18 26 3z m162 -52 c3 -63 3 -63 33
-63 30 0 30 0 33 63 4 89 26 78 30 -14 l3 -70 -50 -2 c-65 -3 -81 13 -81 82 0
29 3 56 7 59 16 17 22 3 25 -55z m334 48 c10 -8 16 -18 12 -22 -4 -4 -14 -1
-22 5 -16 14 -56 6 -56 -10 0 -6 18 -18 39 -26 45 -17 56 -35 41 -64 -13 -24
-81 -27 -100 -4 -17 21 -4 32 20 17 11 -7 29 -12 41 -12 33 0 19 32 -19 44
-44 15 -56 36 -36 64 17 25 51 28 80 8z m147 -36 c11 -27 24 -50 27 -50 3 0
14 23 24 50 10 28 22 50 27 50 14 0 11 -14 -16 -87 -33 -86 -51 -113 -75 -113
-26 0 -26 17 0 25 26 8 25 29 -5 103 -29 70 -29 72 -14 72 6 0 20 -22 32 -50z
m217 30 c25 -25 27 -86 3 -112 -23 -26 -78 -24 -97 4 -36 51 -6 128 49 128 14
0 34 -9 45 -20z m80 -46 c4 -53 7 -59 29 -62 31 -5 41 12 41 76 0 28 5 52 10
52 6 0 10 -31 10 -73 l0 -74 -46 -2 c-64 -2 -74 9 -74 86 0 85 23 82 30 -3z
m228 -12 c2 -60 0 -72 -13 -72 -12 0 -15 14 -15 76 0 56 3 75 13 72 8 -3 13
-30 15 -76z m72 67 c0 -8 5 -8 15 1 22 18 64 4 75 -26 16 -41 13 -114 -5 -114
-10 0 -15 15 -17 58 -3 56 -3 57 -33 57 -30 0 -30 -1 -33 -57 -2 -43 -7 -58
-17 -58 -12 0 -15 15 -15 68 0 38 3 72 7 75 10 11 23 8 23 -4z m291 -8 c31
-25 19 -38 -14 -16 -24 16 -27 15 -46 -4 -23 -23 -26 -43 -11 -72 13 -24 56
-25 69 -2 5 10 13 14 17 10 15 -15 -13 -42 -45 -45 -45 -5 -71 21 -71 70 0 67
53 98 101 59z m159 -1 c43 -43 15 -130 -42 -130 -44 0 -68 25 -68 72 0 45 28
78 65 78 14 0 34 -9 45 -20z m80 8 c0 -9 3 -9 12 0 18 18 45 15 68 -8 25 -25
30 -130 5 -130 -10 0 -15 15 -17 58 -3 56 -3 57 -33 57 -30 0 -30 -1 -33 -57
-2 -43 -7 -58 -17 -58 -12 0 -15 15 -15 68 0 38 3 72 7 75 10 11 23 8 23 -5z
m320 -4 c0 -7 -10 -14 -22 -16 -20 -3 -23 -10 -26 -60 -2 -43 -7 -58 -17 -58
-12 0 -15 16 -15 73 l0 72 40 1 c27 1 40 -3 40 -12z m136 -12 c18 -23 17 -73
-2 -100 -18 -26 -74 -30 -98 -6 -24 23 -21 89 5 115 25 25 73 20 95 -9z m294
8 c43 -43 15 -130 -42 -130 -44 0 -68 25 -68 72 0 45 28 78 65 78 14 0 34 -9
45 -20z m237 8 c6 -7 16 -30 22 -50 7 -21 16 -38 20 -38 4 0 15 23 25 50 17
47 36 66 36 36 0 -17 -57 -155 -71 -173 -13 -15 -49 -18 -49 -4 0 5 9 13 20
16 26 8 25 29 -5 103 -14 34 -25 64 -25 67 0 10 18 5 27 -7z m233 -8 c25 -25
27 -86 3 -112 -25 -28 -79 -24 -99 7 -20 31 -13 94 13 112 25 19 60 16 83 -7z
m82 -50 c3 -49 5 -55 27 -58 31 -5 41 12 41 76 0 28 5 52 10 52 6 0 10 -31 10
-73 l0 -74 -50 -2 c-59 -2 -70 12 -70 87 0 87 27 80 32 -8z m158 60 c0 -7 7
-7 20 0 21 11 40 6 40 -11 0 -5 -8 -9 -18 -9 -30 0 -42 -21 -42 -72 0 -26 -4
-48 -10 -48 -6 0 -10 32 -10 75 0 43 4 75 10 75 6 0 10 -5 10 -10z m236 -4
c24 -18 13 -31 -14 -15 -21 13 -52 6 -52 -11 0 -7 18 -19 39 -27 45 -17 56
-35 41 -64 -13 -24 -81 -27 -100 -4 -17 21 -4 32 20 17 11 -7 29 -12 41 -12
33 0 19 32 -19 44 -44 15 -56 36 -36 64 17 25 51 28 80 8z m84 5 c0 -5 13 -4
29 2 25 9 33 8 50 -7 28 -25 34 -61 16 -102 -14 -35 -17 -36 -55 -31 -39 5
-40 4 -40 -25 0 -19 -4 -28 -12 -26 -13 5 -24 157 -14 185 6 15 26 18 26 4z
m240 -11 c11 -11 20 -29 20 -40 0 -17 -7 -20 -51 -20 -41 0 -50 -3 -47 -16 5
-29 34 -40 62 -24 31 16 43 9 21 -14 -22 -22 -71 -20 -95 4 -26 26 -26 70 1
104 25 31 61 34 89 6z m80 10 c0 -6 10 -5 25 2 19 9 29 8 50 -6 22 -15 25 -23
25 -76 0 -46 -3 -60 -15 -60 -10 0 -15 15 -17 58 -3 56 -3 57 -33 57 -30 0
-30 -1 -33 -57 -4 -85 -22 -71 -22 17 0 43 4 75 10 75 6 0 10 -4 10 -10z m330
-65 c0 -43 -4 -75 -10 -75 -6 0 -10 32 -10 75 0 43 4 75 10 75 6 0 10 -32 10
-75z m158 62 c15 -10 17 -137 2 -137 -5 0 -10 21 -10 48 0 58 -10 75 -41 70
-22 -3 -24 -9 -27 -60 -2 -43 -7 -58 -17 -58 -12 0 -15 16 -15 73 l0 74 48 -1
c26 -1 53 -5 60 -9z m202 1 c0 -4 -6 -11 -14 -15 -8 -4 -16 -19 -18 -33 -2
-19 -12 -27 -48 -36 l-45 -12 36 -1 c20 -1 47 -9 59 -19 19 -16 21 -22 11 -40
-14 -26 -49 -36 -95 -28 -37 7 -53 31 -35 52 6 7 8 17 6 22 -3 4 -2 14 3 22 5
7 3 24 -3 38 -17 38 18 61 88 59 30 -1 55 -5 55 -9z m336 1 c4 -8 9 -8 17 0
16 16 37 14 37 -3 0 -8 -10 -16 -22 -18 -20 -3 -23 -10 -26 -60 -2 -43 -7 -58
-17 -58 -12 0 -15 16 -15 75 0 69 9 91 26 64z m178 -5 c18 -18 23 -134 6 -134
-5 0 -10 5 -10 11 0 8 -4 8 -14 0 -8 -7 -30 -11 -48 -9 -30 3 -33 6 -33 38 0
33 2 36 43 44 30 7 42 15 40 25 -4 22 -32 25 -51 6 -19 -19 -27 -19 -27 0 0
32 67 46 94 19z m154 0 c23 -16 29 -34 11 -34 -6 0 -17 7 -25 15 -9 8 -19 15
-24 15 -18 0 -40 -32 -40 -59 0 -48 37 -66 72 -34 21 19 31 14 22 -11 -7 -20
-45 -30 -78 -22 -49 12 -57 100 -13 131 27 19 47 19 75 -1z m-618 -119 c0 -8
-7 -15 -15 -15 -8 0 -15 7 -15 15 0 8 7 15 15 15 8 0 15 -7 15 -15z m-5180
-265 c0 -38 1 -39 20 -28 17 11 25 10 48 -2 22 -13 28 -24 30 -57 4 -59 -11
-83 -51 -83 -18 0 -38 5 -45 12 -9 9 -12 9 -12 0 0 -7 -4 -12 -10 -12 -6 0
-10 42 -10 105 0 87 3 105 15 105 11 0 15 -11 15 -40z m420 -65 c0 -63 -4
-105 -10 -105 -5 0 -10 5 -10 12 0 9 -3 9 -12 0 -17 -17 -64 -15 -82 4 -24 23
-21 96 5 119 17 16 25 17 50 8 l29 -11 0 39 c0 28 4 39 15 39 12 0 15 -18 15
-105z m1190 0 c0 -63 -4 -105 -10 -105 -5 0 -10 5 -10 12 0 9 -3 9 -12 0 -17
-17 -58 -15 -80 5 -26 23 -24 87 3 114 16 16 29 20 50 15 26 -5 29 -3 29 23 0
28 7 41 22 41 4 0 8 -47 8 -105z m390 0 c0 -63 -4 -105 -10 -105 -5 0 -10 5
-10 12 0 9 -3 9 -12 0 -17 -17 -64 -15 -82 4 -21 20 -20 83 0 113 14 19 23 22
50 18 32 -5 34 -4 34 22 0 28 7 41 22 41 4 0 8 -47 8 -105z m170 0 c0 -63 -4
-105 -10 -105 -5 0 -10 5 -10 12 0 9 -3 9 -12 0 -17 -17 -73 -15 -89 4 -22 26
-17 90 9 116 19 20 26 21 52 11 l30 -11 0 39 c0 28 4 39 15 39 12 0 15 -18 15
-105z m2670 10 c0 -57 4 -95 10 -95 6 0 10 -4 10 -10 0 -16 -37 -11 -44 6 -8
21 -8 179 1 187 18 19 23 -1 23 -88z m-5980 70 c0 -8 -4 -15 -10 -15 -5 0 -10
7 -10 15 0 8 5 15 10 15 6 0 10 -7 10 -15z m4210 -1 c0 -17 -22 -14 -28 4 -2
7 3 12 12 12 9 0 16 -7 16 -16z m1698 4 c-6 -18 -28 -21 -28 -4 0 9 7 16 16
16 9 0 14 -5 12 -12z m-6965 -42 l22 -7 -22 -9 c-19 -8 -23 -17 -23 -56 0 -37
4 -47 20 -51 30 -8 24 -25 -7 -21 -26 3 -28 6 -31 58 -2 35 -8 59 -18 67 -13
9 -13 13 -1 20 7 4 17 17 22 28 8 20 9 20 12 -1 2 -12 14 -25 26 -28z m967 18
c0 -8 7 -14 15 -14 8 0 15 -4 15 -10 0 -5 -7 -10 -15 -10 -12 0 -15 -13 -15
-55 0 -42 3 -55 15 -55 8 0 15 -5 15 -11 0 -6 -12 -9 -27 -7 -27 3 -28 6 -31
63 -2 33 -9 63 -15 67 -8 6 -9 10 -1 16 6 4 13 15 17 25 8 20 27 14 27 -9z
m1070 6 c0 -11 7 -20 15 -20 8 0 15 -4 15 -10 0 -5 -7 -10 -15 -10 -12 0 -15
-13 -15 -55 0 -42 3 -55 15 -55 8 0 15 -5 15 -11 0 -6 -12 -9 -27 -7 -27 3
-28 6 -31 63 -2 33 -9 63 -15 67 -8 6 -9 10 -1 16 6 4 13 15 17 25 9 23 27 22
27 -3z m990 -2 c0 -6 8 -17 18 -24 16 -13 16 -13 0 -14 -15 0 -18 -9 -18 -55
0 -42 3 -55 15 -55 8 0 15 -5 15 -11 0 -6 -12 -9 -27 -7 -26 3 -28 6 -31 58
-2 35 -8 59 -18 67 -13 9 -13 13 -1 20 7 4 17 16 20 26 7 19 27 15 27 -5z
m1490 2 c0 -11 7 -20 15 -20 8 0 15 -4 15 -10 0 -5 -7 -10 -15 -10 -12 0 -15
-13 -15 -55 0 -42 3 -55 15 -55 8 0 15 -5 15 -11 0 -6 -12 -9 -27 -7 -27 3
-28 6 -31 63 -2 33 -9 63 -15 67 -8 6 -9 10 -1 16 6 4 13 15 17 25 9 23 27 22
27 -3z m1690 1 c0 -11 9 -21 23 -25 l22 -7 -22 -9 c-20 -8 -23 -17 -23 -60 0
-43 3 -50 20 -50 11 0 20 -5 20 -11 0 -6 -12 -9 -27 -7 -26 3 -28 6 -31 58 -2
36 -8 59 -19 67 -15 11 -15 13 0 19 10 3 17 15 17 25 0 10 5 19 10 19 6 0 10
-8 10 -19z m-6130 -33 c0 -9 3 -9 12 0 16 16 38 15 38 -2 0 -8 -10 -16 -22
-18 -20 -3 -23 -10 -26 -60 -2 -43 -7 -58 -17 -58 -12 0 -15 15 -15 68 0 38 3
72 7 75 10 11 23 8 23 -5z m171 2 c16 -9 19 -22 19 -75 0 -37 -4 -65 -10 -65
-5 0 -10 5 -10 12 0 9 -3 9 -12 0 -7 -7 -24 -12 -38 -12 -50 0 -68 47 -28 74
12 9 35 16 51 16 31 0 33 16 4 34 -12 8 -21 6 -35 -7 -23 -21 -32 -22 -32 -2
0 29 54 44 91 25z m89 0 c0 -6 10 -5 25 2 19 9 29 8 50 -6 22 -15 25 -23 25
-76 0 -46 -3 -60 -15 -60 -10 0 -15 15 -17 58 -3 56 -3 57 -33 57 -30 0 -30
-1 -33 -57 -4 -85 -22 -71 -22 17 0 43 4 75 10 75 6 0 10 -4 10 -10z m226 -4
c26 -19 10 -33 -20 -17 -13 8 -29 10 -35 7 -22 -14 -10 -33 30 -45 37 -11 40
-15 37 -44 -3 -30 -6 -32 -44 -35 -28 -2 -45 2 -54 13 -16 20 -5 32 14 16 19
-16 61 -10 61 8 0 8 -13 18 -28 22 -55 15 -71 43 -41 73 19 20 54 20 80 2z
m145 4 c16 -9 19 -22 19 -75 0 -37 -4 -65 -10 -65 -5 0 -10 5 -10 12 0 9 -3 9
-12 0 -7 -7 -24 -12 -38 -12 -50 0 -68 47 -28 74 12 9 35 16 51 16 31 0 33 16
4 34 -12 8 -21 6 -35 -7 -32 -29 -47 -14 -16 17 18 18 47 20 75 6z m160 0 c10
-6 19 -17 19 -25 0 -19 -10 -18 -34 0 -32 25 -58 2 -54 -48 3 -36 7 -43 27
-45 15 -3 30 3 38 14 16 22 31 9 17 -14 -6 -10 -27 -18 -47 -20 -42 -4 -67 24
-67 75 0 57 51 89 101 63z m189 -65 c0 -43 -4 -75 -10 -75 -6 0 -10 32 -10 75
0 43 4 75 10 75 6 0 10 -32 10 -75z m150 55 c25 -25 27 -86 3 -112 -23 -26
-78 -24 -97 4 -36 51 -6 128 49 128 14 0 34 -9 45 -20z m80 10 c0 -6 10 -5 25
2 19 9 29 8 50 -6 22 -15 25 -23 25 -76 0 -46 -3 -60 -15 -60 -10 0 -15 15
-17 58 -3 56 -3 57 -33 57 -30 0 -30 -1 -33 -57 -4 -85 -22 -71 -22 17 0 43 4
75 10 75 6 0 10 -4 10 -10z m226 -4 c26 -19 10 -33 -20 -17 -13 8 -29 10 -35
7 -20 -13 -11 -34 16 -41 16 -4 34 -11 40 -17 18 -15 16 -55 -3 -62 -28 -11
-71 -6 -84 9 -16 20 -5 32 14 16 19 -16 61 -10 61 8 0 8 -13 18 -28 22 -55 15
-71 43 -41 73 19 20 54 20 80 2z m270 0 c24 -18 13 -31 -14 -15 -21 13 -52 6
-52 -11 0 -7 18 -19 39 -27 45 -17 56 -35 41 -64 -13 -24 -81 -27 -100 -4 -17
21 -4 32 20 17 11 -7 29 -12 41 -12 33 0 19 32 -19 44 -44 15 -56 36 -36 64
17 25 51 28 80 8z m152 -3 c11 -10 23 -28 27 -40 6 -22 3 -23 -43 -23 -56 0
-65 -5 -51 -31 11 -21 49 -25 67 -7 17 17 28 2 12 -17 -13 -16 -66 -20 -87 -7
-19 12 -34 61 -27 88 7 27 39 54 65 54 9 0 26 -8 37 -17z m424 -45 c3 -63 3
-63 33 -63 30 0 30 0 33 63 4 89 26 78 30 -15 l3 -70 -50 -1 c-66 -2 -81 14
-81 82 0 29 3 56 7 59 16 17 22 3 25 -55z m438 45 c0 -7 -4 -13 -10 -13 -5 0
-10 -8 -10 -19 0 -24 -16 -37 -60 -49 l-35 -10 36 -1 c46 -1 72 -21 67 -51 -4
-31 -42 -45 -92 -36 -40 8 -53 25 -40 54 4 9 6 21 5 26 -1 4 3 14 9 21 8 9 8
15 0 20 -17 11 -11 43 12 59 27 19 118 18 118 -1z m128 1 c12 -8 22 -26 22
-40 0 -22 -4 -24 -51 -24 -41 0 -50 -3 -47 -16 5 -29 34 -40 62 -24 30 16 45
7 26 -15 -16 -19 -70 -20 -95 -1 -29 21 -27 92 4 117 28 23 49 24 79 3z m257
0 c22 -22 10 -30 -20 -14 -22 12 -28 12 -42 -3 -15 -15 -14 -17 13 -27 61 -21
78 -46 54 -75 -16 -20 -74 -19 -90 0 -16 20 -5 32 14 16 18 -15 58 -11 64 6 2
7 -5 16 -15 19 -58 19 -73 28 -73 44 0 44 63 66 95 34z m276 6 c16 -9 19 -22
19 -75 0 -37 -4 -65 -10 -65 -5 0 -10 5 -10 12 0 9 -3 9 -12 0 -7 -7 -24 -12
-38 -12 -50 0 -68 47 -28 74 12 9 35 16 51 16 31 0 33 16 4 34 -12 8 -21 6
-35 -7 -23 -21 -32 -22 -32 -2 0 29 54 44 91 25z m89 0 c0 -6 10 -5 25 2 19 9
29 8 50 -6 22 -15 25 -23 25 -76 0 -46 -3 -60 -15 -60 -10 0 -15 15 -17 58 -3
56 -3 57 -33 57 -30 0 -30 -1 -33 -57 -4 -85 -22 -71 -22 17 0 43 4 75 10 75
6 0 10 -4 10 -10z m461 0 c16 -9 19 -22 19 -75 0 -37 -4 -65 -10 -65 -5 0 -10
5 -10 12 0 9 -3 9 -12 0 -7 -7 -24 -12 -38 -12 -50 0 -68 47 -28 74 12 9 35
16 51 16 31 0 33 16 4 34 -12 8 -21 6 -35 -7 -23 -21 -32 -22 -32 -2 0 29 54
44 91 25z m666 -5 c27 -19 36 -56 22 -92 -13 -34 -25 -43 -66 -43 -59 0 -83
72 -42 124 23 29 54 33 86 11z m218 -5 c14 -16 15 -20 4 -20 -8 0 -20 5 -26
11 -14 14 -56 2 -50 -14 2 -7 19 -17 37 -23 67 -22 66 -76 -2 -82 -36 -3 -85
27 -58 36 6 2 17 -1 23 -7 6 -6 22 -11 35 -11 36 0 24 31 -18 45 -25 8 -36 19
-38 35 -7 46 59 67 93 30z m149 4 c18 -18 23 -134 6 -134 -5 0 -10 5 -10 11 0
8 -4 8 -14 0 -8 -7 -30 -11 -48 -9 -30 3 -33 6 -33 38 0 33 2 36 43 44 30 7
42 15 40 25 -4 22 -32 25 -51 6 -19 -19 -27 -19 -27 0 0 32 67 46 94 19z m82
-39 c10 -30 20 -52 24 -50 4 3 13 25 20 50 12 44 26 63 36 52 10 -9 -43 -142
-57 -145 -13 -2 -59 104 -59 136 0 31 21 7 36 -43z m144 -26 c0 -55 -3 -69
-15 -69 -12 0 -15 14 -15 68 0 38 3 72 6 75 16 16 24 -9 24 -74z m70 71 c0 -7
6 -7 19 0 28 14 38 13 61 -10 25 -25 30 -130 5 -130 -10 0 -15 15 -17 58 -3
56 -3 57 -33 57 -30 0 -30 -1 -33 -57 -2 -43 -7 -58 -17 -58 -12 0 -15 15 -15
68 0 38 3 72 7 75 10 10 23 8 23 -3z m280 4 c0 0 -9 -19 -20 -42 -17 -35 -26
-42 -62 -50 -40 -9 -41 -10 -11 -11 49 -2 83 -18 83 -40 0 -41 -74 -66 -121
-41 -20 11 -26 45 -9 55 6 4 8 11 4 16 -3 5 0 16 6 24 9 11 9 15 1 15 -18 0
-13 58 7 69 12 7 122 12 122 5z m116 -8 c26 -19 10 -33 -20 -17 -13 8 -29 10
-35 7 -20 -13 -11 -34 16 -41 16 -4 34 -11 40 -17 18 -15 16 -55 -3 -62 -28
-11 -71 -6 -84 9 -16 20 -5 32 14 16 19 -16 61 -10 61 8 0 8 -13 18 -28 22
-55 15 -71 43 -41 73 19 20 54 20 80 2z m170 6 c18 8 29 7 49 -6 20 -13 25
-24 25 -59 0 -60 -17 -81 -63 -75 -33 3 -36 1 -39 -22 -6 -55 -23 -16 -26 62
-3 90 2 118 20 100 7 -7 17 -7 34 0z m214 -12 c25 -25 27 -86 3 -112 -20 -22
-70 -23 -95 -1 -43 39 -10 133 47 133 14 0 34 -9 45 -20z m251 0 c18 -14 20
-19 9 -20 -9 0 -21 5 -27 11 -14 14 -56 2 -50 -14 2 -7 19 -17 37 -23 67 -22
66 -76 -2 -82 -36 -3 -85 27 -58 36 6 2 17 -1 23 -7 6 -6 22 -11 35 -11 36 0
24 31 -18 45 -41 14 -53 51 -24 72 25 18 48 16 75 -7z m214 -5 c40 -39 33 -55
-23 -55 -56 0 -65 -5 -51 -31 11 -21 49 -25 67 -7 17 17 28 2 12 -17 -17 -20
-69 -19 -92 2 -25 23 -24 87 2 113 27 27 56 25 85 -5z m146 15 c16 -9 19 -22
19 -75 0 -37 -4 -65 -10 -65 -5 0 -10 5 -10 12 0 9 -3 9 -12 0 -7 -7 -24 -12
-38 -12 -50 0 -68 47 -28 74 12 9 35 16 51 16 31 0 33 16 4 34 -12 8 -21 6
-35 -7 -32 -29 -47 -14 -16 17 18 18 47 20 75 6z m155 -4 c26 -19 10 -33 -20
-17 -13 8 -29 10 -35 7 -22 -14 -10 -33 29 -45 35 -10 40 -16 40 -40 0 -17 -7
-31 -16 -35 -28 -11 -71 -6 -84 9 -16 20 -5 32 14 16 19 -16 61 -10 61 8 0 8
-13 18 -28 22 -55 15 -71 43 -41 73 19 20 54 20 80 2z m84 -67 c0 -55 -3 -69
-15 -69 -12 0 -15 14 -15 68 0 38 3 72 6 75 16 16 24 -9 24 -74z m156 22 l21
-53 23 56 c12 31 26 56 31 56 13 0 12 -7 -23 -98 -23 -61 -38 -87 -55 -95 -16
-7 -27 -7 -34 0 -7 7 -3 12 15 17 32 8 32 21 1 98 -28 69 -30 81 -13 76 7 -3
22 -28 34 -57z m-5526 -73 c0 -7 -8 -23 -18 -36 l-18 -23 -1 35 c-1 29 3 36
18 36 10 0 19 -6 19 -12z m1660 -6 c0 -10 -6 -26 -13 -36 -12 -16 -13 -14 -14
18 -1 25 3 36 13 36 8 0 14 -8 14 -18z m3990 3 c0 -8 -7 -15 -15 -15 -8 0 -15
7 -15 15 0 8 7 15 15 15 8 0 15 -7 15 -15z"/>
<path d="M1803 17273 c-13 -2 -23 -9 -23 -14 0 -15 74 -10 96 6 18 13 17 14
-16 13 -19 0 -45 -3 -57 -5z"/>
<path d="M2998 17399 c-34 -19 -18 -29 47 -29 68 0 85 13 39 30 -32 13 -64 12
-86 -1z"/>
<path d="M3625 14426 c-35 -16 -82 -63 -72 -73 4 -3 18 5 31 20 13 14 43 31
66 38 36 11 49 11 86 -3 51 -18 69 -6 25 17 -36 18 -95 19 -136 1z"/>
<path d="M3609 14327 c-36 -30 -63 -74 -50 -81 5 -4 12 2 16 13 3 10 21 35 41
55 39 40 34 49 -7 13z"/>
<path d="M3685 14315 c-29 -28 -31 -42 -9 -73 19 -28 47 -28 85 -1 33 24 32
51 -3 82 -27 23 -44 22 -73 -8z"/>
<path d="M3634 13944 c13 -56 86 -86 117 -48 12 15 10 16 -27 10 -43 -8 -59 2
-65 38 -2 11 -10 21 -18 24 -11 4 -12 -2 -7 -24z"/>
<path d="M1377 3292 c-10 -10 -17 -26 -17 -35 0 -14 11 -17 65 -17 72 0 83 12
45 50 -25 25 -72 26 -93 2z"/>
<path d="M1740 3290 c-38 -38 -27 -50 45 -50 57 0 65 2 65 18 0 47 -73 69
-110 32z"/>
<path d="M2133 3295 c-41 -29 -42 -136 -2 -176 26 -26 55 -24 86 7 23 23 25
31 21 86 -4 48 -9 65 -27 79 -28 23 -50 24 -78 4z"/>
<path d="M3163 3190 c-57 -23 -49 -90 12 -90 43 0 65 22 65 66 0 31 -3 34 -27
33 -16 0 -38 -4 -50 -9z"/>
<path d="M4370 3292 c-46 -37 -34 -163 18 -183 54 -20 99 45 86 125 -11 68
-59 95 -104 58z"/>
<path d="M5461 3291 c-23 -23 -34 -85 -23 -125 21 -74 99 -81 122 -11 33 100
-38 197 -99 136z"/>
<path d="M7170 3292 c-46 -37 -34 -163 18 -183 54 -20 99 45 86 125 -11 68
-59 95 -104 58z"/>
<path d="M7910 3290 c-38 -38 -27 -50 45 -50 70 0 78 7 49 48 -19 28 -67 29
-94 2z"/>
<path d="M1689 2511 c-21 -17 -24 -28 -24 -86 0 -58 3 -69 24 -86 13 -10 31
-19 41 -19 10 0 28 9 41 19 21 17 24 28 24 84 0 50 -4 70 -19 86 -24 26 -57
27 -87 2z"/>
<path d="M955 2410 c-36 -14 -49 -37 -37 -65 9 -20 19 -25 46 -25 44 0 66 22
66 66 0 31 -3 34 -27 33 -16 0 -37 -4 -48 -9z"/>
<path d="M2553 2405 c-57 -24 -40 -85 22 -85 40 0 65 27 65 68 0 28 -3 32 -27
32 -16 -1 -43 -7 -60 -15z"/>
<path d="M3220 2510 c-38 -38 -27 -50 45 -50 70 0 78 7 49 48 -19 28 -67 29
-94 2z"/>
<path d="M3973 2504 c-23 -23 -25 -31 -21 -86 4 -48 9 -65 27 -79 31 -25 47
-24 76 6 50 49 23 185 -36 185 -11 0 -31 -12 -46 -26z"/>
<path d="M5081 2511 c-44 -44 -35 -163 15 -181 39 -15 71 3 85 49 21 71 -11
151 -61 151 -11 0 -29 -9 -39 -19z"/>
<path d="M7750 2510 c-38 -38 -27 -50 45 -50 57 0 65 2 65 18 0 47 -73 69
-110 32z"/>
<path d="M7696 1437 c-13 -9 -17 -23 -14 -52 3 -37 5 -40 32 -40 24 0 31 5 37
27 7 27 -8 69 -26 75 -6 2 -19 -3 -29 -10z"/>
<path d="M850 1459 l0 -40 43 3 c38 3 42 6 45 32 4 34 -10 46 -55 46 -32 0
-33 -1 -33 -41z"/>
<path d="M1032 1438 c-23 -23 -13 -38 23 -38 22 0 35 5 35 13 0 16 -20 37 -35
37 -6 0 -16 -5 -23 -12z"/>
<path d="M1437 1432 c-42 -46 8 -123 51 -80 17 17 15 64 -4 82 -20 20 -27 20
-47 -2z"/>
<path d="M1751 1381 c-17 -11 -7 -41 13 -41 28 0 46 12 46 31 0 21 -33 26 -59
10z"/>
<path d="M2407 1383 c-17 -16 -6 -43 16 -43 25 0 47 17 47 37 0 13 -51 19 -63
6z"/>
<path d="M2882 1438 c-23 -23 -13 -38 23 -38 28 0 35 4 35 19 0 28 -37 40 -58
19z"/>
<path d="M3094 1375 c-8 -19 3 -35 25 -35 20 0 41 19 41 37 0 18 -59 17 -66
-2z"/>
<path d="M3273 1438 c-18 -24 -22 -48 -13 -74 8 -20 16 -25 38 -22 23 3 27 8
30 41 5 55 -29 88 -55 55z"/>
<path d="M3436 1434 c-29 -28 -13 -94 22 -94 26 0 42 20 42 51 0 27 -22 59
-40 59 -5 0 -16 -7 -24 -16z"/>
<path d="M3665 1434 c-36 -36 1 -114 43 -88 34 22 20 104 -18 104 -5 0 -16 -7
-25 -16z"/>
<path d="M4448 1439 c-18 -10 -24 -52 -12 -83 3 -9 17 -16 30 -16 33 0 49 41
32 78 -15 30 -27 35 -50 21z"/>
<path d="M5273 1438 c-18 -24 -22 -48 -13 -74 8 -20 16 -25 38 -22 23 3 27 8
30 41 5 55 -29 88 -55 55z"/>
<path d="M5794 1424 c-31 -47 11 -107 51 -74 22 18 19 77 -4 90 -27 14 -28 13
-47 -16z"/>
<path d="M6103 1438 c-18 -24 -22 -48 -13 -74 8 -20 16 -25 38 -22 23 3 27 8
30 41 5 55 -29 88 -55 55z"/>
<path d="M6578 1439 c-22 -12 -24 -71 -3 -89 39 -32 81 29 51 75 -18 28 -23
29 -48 14z"/>
<path d="M7216 1437 c-22 -16 -18 -75 7 -91 41 -26 78 52 42 88 -20 19 -26 20
-49 3z"/>
<path d="M7372 1438 c-23 -23 -13 -38 23 -38 28 0 35 4 35 19 0 28 -37 40 -58
19z"/>
<path d="M8097 1443 c-14 -14 -6 -42 14 -48 26 -9 52 15 43 38 -6 17 -44 23
-57 10z"/>
<path d="M8089 1330 c-6 -5 -9 -15 -6 -25 9 -21 82 -18 82 5 0 16 -57 31 -76
20z"/>
<path d="M8650 1375 c-17 -21 -1 -38 31 -33 16 2 25 11 27 26 3 18 -1 22 -21
22 -14 0 -30 -7 -37 -15z"/>
<path d="M3096 1017 c-13 -9 -17 -23 -14 -52 3 -37 5 -40 33 -40 40 0 56 41
31 79 -19 30 -25 31 -50 13z"/>
<path d="M3404 1005 c-24 -37 -7 -80 32 -80 26 0 29 3 32 38 5 64 -33 89 -64
42z"/>
<path d="M4601 1016 c-7 -8 -11 -32 -9 -53 3 -35 5 -38 33 -38 28 0 30 3 33
38 3 39 -10 67 -33 67 -7 0 -18 -6 -24 -14z"/>
<path d="M4990 1015 c-15 -18 -16 -73 -2 -87 5 -5 20 -8 33 -6 20 2 25 10 27
41 5 57 -29 87 -58 52z"/>
<path d="M5156 1014 c-29 -28 -13 -94 22 -94 26 0 42 20 42 51 0 27 -22 59
-40 59 -5 0 -16 -7 -24 -16z"/>
<path d="M1067 963 c-17 -16 -6 -43 16 -43 25 0 47 17 47 37 0 13 -51 19 -63
6z"/>
<path d="M1524 955 c-8 -19 3 -35 25 -35 20 0 41 19 41 37 0 18 -59 17 -66 -2z"/>
<path d="M2028 1019 c-22 -12 -24 -71 -3 -89 39 -32 81 29 51 75 -18 28 -23
29 -48 14z"/>
<path d="M2756 1014 c-22 -22 -11 -34 30 -34 37 0 39 2 24 31 -13 23 -33 24
-54 3z"/>
<path d="M3577 1023 c-14 -14 -6 -42 14 -48 30 -10 57 18 39 39 -13 16 -42 21
-53 9z"/>
<path d="M3569 910 c-6 -5 -9 -15 -6 -25 9 -21 82 -18 82 5 0 16 -57 31 -76
20z"/>
<path d="M3748 1019 c-31 -17 -22 -39 16 -39 41 0 52 12 30 34 -18 19 -23 19
-46 5z"/>
<path d="M4277 963 c-17 -16 -6 -43 16 -43 25 0 47 17 47 37 0 13 -51 19 -63
6z"/>
<path d="M4827 963 c-17 -16 -6 -43 16 -43 25 0 47 17 47 37 0 13 -51 19 -63
6z"/>
<path d="M5498 1019 c-21 -12 -24 -69 -6 -87 29 -29 68 -2 68 47 0 19 -24 51
-38 51 -4 0 -15 -5 -24 -11z"/>
<path d="M5850 955 c-17 -21 -1 -38 31 -33 16 2 25 11 27 26 3 18 -1 22 -21
22 -14 0 -30 -7 -37 -15z"/>
<path d="M6390 1015 c-11 -13 -11 -19 2 -32 22 -22 60 -8 56 20 -4 27 -40 34
-58 12z"/>
<path d="M6378 902 c-9 -10 -8 -16 3 -23 22 -14 73 -6 77 12 4 22 -64 31 -80
11z"/>
<path d="M6778 1019 c-21 -12 -24 -69 -6 -87 29 -29 68 -2 68 47 0 19 -24 51
-38 51 -4 0 -15 -5 -24 -11z"/>
<path d="M6938 1019 c-11 -6 -18 -22 -18 -42 0 -43 12 -59 40 -55 29 4 43 46
26 79 -13 27 -25 32 -48 18z"/>
<path d="M7402 1018 c-23 -23 -13 -38 23 -38 22 0 35 5 35 13 0 16 -20 37 -35
37 -6 0 -16 -5 -23 -12z"/>
<path d="M7544 955 c-8 -19 3 -35 25 -35 20 0 41 19 41 37 0 18 -59 17 -66 -2z"/>
<path d="M9725 17030 c-44 -16 -75 -29 -70 -29 6 -1 49 12 95 28 47 16 78 29
70 29 -8 0 -51 -12 -95 -28z"/>
<path d="M9535 16970 c-44 -16 -75 -29 -70 -29 6 -1 49 12 95 28 47 16 78 29
70 29 -8 0 -51 -12 -95 -28z"/>
<path d="M9345 16910 c-44 -16 -75 -29 -70 -29 6 -1 49 12 95 28 47 16 78 29
70 29 -8 0 -51 -12 -95 -28z"/>
<path d="M9140 16845 c-52 -18 -90 -34 -85 -34 6 -1 56 14 110 33 55 19 93 34
85 34 -8 0 -58 -15 -110 -33z"/>
<path d="M8935 16780 c-44 -16 -75 -29 -70 -29 6 -1 49 12 95 28 47 16 78 29
70 29 -8 0 -51 -12 -95 -28z"/>
<path d="M8745 16720 c-44 -16 -75 -29 -70 -29 6 -1 49 12 95 28 47 16 78 29
70 29 -8 0 -51 -12 -95 -28z"/>
<path d="M8555 16660 c-44 -16 -75 -29 -70 -29 6 -1 49 12 95 28 47 16 78 29
70 29 -8 0 -51 -12 -95 -28z"/>
<path d="M8350 16595 c-52 -18 -90 -34 -85 -34 6 -1 56 14 110 33 55 19 93 34
85 34 -8 0 -58 -15 -110 -33z"/>
<path d="M8145 16530 c-44 -16 -75 -29 -70 -29 6 -1 49 12 95 28 47 16 78 29
70 29 -8 0 -51 -12 -95 -28z"/>
<path d="M7955 16470 c-44 -16 -75 -29 -70 -29 6 -1 49 12 95 28 47 16 78 29
70 29 -8 0 -51 -12 -95 -28z"/>
<path d="M16 10421 c-12 -13 -16 -32 -14 -57 l3 -38 34 42 c27 35 31 45 21 57
-16 20 -23 19 -44 -4z"/>
<path d="M95 10181 c-93 -125 -96 -131 -93 -176 l3 -47 116 148 c114 146 115
148 101 176 -7 15 -17 28 -22 28 -4 0 -51 -58 -105 -129z"/>
</g>
</svg>
